<?xml version="1.0" encoding="UTF-8"?>
<svg id="Layer_2" data-name="Layer 2" xmlns="http://www.w3.org/2000/svg" viewBox="0 0 179.43 71.13">
  <defs>
    <style>
      .cls-1 {
        fill: #fff;
      }

      .cls-2 {
        fill: #251500;
      }
    </style>
  </defs>
  <g id="OBJECTS">
    <g>
      <path class="cls-1" d="M179.38,26.85c-.46-7.05-3.57-12.53-10.19-15.26-6.85-2.83-14.1.71-16.52,7.91-.5,1.48-2.45,4.32-2.83,5.84-1.68,6.63,1.14,12.78,8.4,14.72.47.21,1.61.52,2.35.57-4.24,4.77-8.29,9.09-14.42,10.46-3.31.74-6.48,2.28-10.01,1.62-17.2-3.21-30.93-11.26-38.2-28.58-1-2.39-2.46-4.85-4.35-6.51-3.82-3.35-8.35-5.79-11.27-10.3-1.09-1.68-3.16-.91-3.62,1.23-.35,1.64-.28,3.37-.4,5.06-.28,4.05-.56,8.1-.9,12.99-1.57-1.5-2.54-2.48-3.57-3.39-5.34-4.74-10.59-9.61-16.1-14.14-3.84-3.16-8.37-4.94-13.4-4.91-2.54.02-4.84-.68-7.06-1.94-5.51-3.11-11.07-2.91-16.53.13-1.75.97-3.52,2.06-4.96,3.44-3.24,3.11-6.44,6.19-10.28,8.59-1.75,1.09-3.06,2.98-4.45,4.62-.47.55-.57,1.43-1.09,2.83,1.87-.15,3.2-.26,4.52-.37,4.09-.35,8.18-.94,12.27-.97,2.65-.02,5.38.54,7.65,2.57-.25.59-.47,1.13-.72,1.66-2.38,5.14-.5,9.21,4.96,10.2,2.52.46,5.14.3,7.72.37,1.85.05,3.7,0,6.15,0-1.03,1.63-1.81,2.68-2.41,3.84-2.92,5.61-.66,12.22,4.78,14.14,2.71.96,5.46.63,7.09-1.66,1.73-2.44,3.74-2.54,6.14-2.24,1.52.19,3.05.31,4.54.6,7.41,1.43,13.93,5.09,20.48,8.67,3.95,2.16,7.84,4.46,11.93,6.3,22.94,10.3,44.77,7.35,65.59-6.2,5.13-3.34,9.5-7.59,12.82-12.84,3.66-5.77,6.32-11.99,5.86-19.06Z"/>
      <path class="cls-2" d="M104.16,42.59s0,0-.01-.01c0,0,0,0,.01,0h0ZM92.22,23.72s0,0,0,0c0,0,.01.01.02.02v-.02ZM173.52,45.92c-3.33,5.25-7.7,9.5-12.82,12.84-20.82,13.55-42.65,16.5-65.59,6.2-4.09-1.84-7.98-4.14-11.93-6.3-6.55-3.58-13.07-7.24-20.48-8.67-1.5-.29-3.03-.41-4.54-.6-2.4-.3-4.4-.2-6.14,2.24-1.63,2.29-4.38,2.63-7.09,1.66-5.44-1.93-7.69-8.53-4.78-14.14.6-1.15,1.38-2.21,2.41-3.84-2.45,0-4.3.04-6.15,0-2.58-.07-5.2.09-7.72-.37-5.46-.99-7.33-5.06-4.96-10.2.25-.53.46-1.07.72-1.66-2.27-2.04-5-2.59-7.65-2.57-4.09.04-8.18.62-12.27.97-1.32.11-2.65.22-4.52.37.52-1.4.62-2.28,1.09-2.83,1.39-1.64,2.7-3.53,4.45-4.62,3.84-2.39,7.04-5.47,10.28-8.59,1.44-1.38,3.21-2.47,4.96-3.44,5.46-3.04,11.03-3.24,16.53-.13,2.23,1.26,4.52,1.95,7.06,1.94,5.04-.04,9.56,1.75,13.4,4.91,5.51,4.53,10.75,9.4,16.1,14.14,1.03.91,1.99,1.89,3.57,3.39.34-4.89.62-8.94.9-12.99.12-1.69.05-3.42.4-5.06.46-2.14,2.53-2.91,3.62-1.23,2.92,4.5,7.45,6.94,11.27,10.3,1.89,1.66,3.35,4.12,4.35,6.51,7.27,17.32,21,25.37,38.2,28.58,3.53.66,6.7-.88,10.01-1.62,6.13-1.37,10.18-5.69,14.42-10.46-.74-.05-1.88-.36-2.35-.57-7.26-1.94-10.07-8.09-8.4-14.72.38-1.52,2.33-4.35,2.83-5.84,2.42-7.2,9.67-10.74,16.52-7.91,6.62,2.73,9.73,8.21,10.19,15.26.46,7.07-2.2,13.29-5.86,19.06ZM85.48,17.23c.06,0,.12-.01.19-.02-.02-.02-.04-.05-.05-.07-.04.03-.09.06-.13.09ZM83.27,32.43c9.89,9.43,23.4,19.17,36.8,22.03,4.87,1.04,8.04.55,11.32-.14-1.13-.64-6.59-2.23-7.76-2.66-12.83-4.76-22.9-12.66-28.24-26.04-.66-1.66-1.62-3.22-2.65-4.68-.99-1.42-2.27-2.59-4.47-2.49,1.32,1.76,2.64,3.52,3.96,5.29-.52-.12-1.24-.07-1.53-.4-1.72-1.98-3.34-4.04-4.98-6.06.16,1.02.11,2.15.54,3.03,4.34,8.8,10.22,16.31,17.9,22.29-.82-.27-1.8-.33-2.42-.84-7.53-6.21-13.46-13.76-17.91-22.58.1.99.02,2.06.37,2.94,2.76,6.86,7.01,12.65,12.3,17.66-1.44.6-2.16-.62-3-1.35-4.48-3.88-7.95-8.54-10.28-14.09-.45-1.09-.96-2.15-1.51-3.38-1.68,3.51-.97,9.05,1.57,11.49ZM44.17,32.28c2.89.31,8.68,1.51,8.14,1.05-3.42-2.95-11.51-3.61-14.24-4.26-2.09-.5-4.25-.71-6.38-1.05.01-.26,2.94-.9,4.4-.97,1.74-.08,8.14.31,8.14.31-2.8-1.24-10.05-4.05-13.16-4.54,1.36-.82,5.41-.1,6.88.08.07-.24-5.56-2.72-8.26-3.69-2.81-1.01-5.71-1.75-8.58-2.6,4.78-.9,9.1,1.07,13.62,1.82-3.72-2.93-7.84-5.14-12.35-5.92-5.95-1.03-11.78-.35-16.48,4.26-.5.49-.84,1.16-1.55,2.17,2.32-.39,4.04-.75,5.78-.95,5.33-.62,10.61-.51,15.44,2.29,2.8,1.62,2.94,2.6,1.17,5.42-1.94,3.09-1.17,5.3,2.25,6.26.79.22,1.62.32,2.44.35,5.51.2,10.25-.29,12.74-.02ZM59.91,44.18c-2.75-1.86-6.11-2.88-9.07-2.58-1.37.14-2.78.51-4.03,1.1-1.54.73-2.5,2.79-1.79,4.31.51,1.08,1.65,1.64,3.19,1.35.43-.19,1.15-.35,1.24-.16-.93,2.02-3.86,1.95-5.13.86-1.96-1.69-1.91-4.57-.82-6.87,1.06-2.23,2.97-4.03,4.83-6.43-1.18.14-2.11-.03-2.64.37-2.13,1.61-3.81,3.68-4.21,6.47-.38,2.68-.32,5.28,1.95,7.55,1.76,1.76,3.51,1.68,5.56,1.06,1.44-.44,2.45-1.39,2.74-2.98.3-1.64-.3-2.8-1.78-3.52-.31-.15-1.48-.76-1.74-1.01,2.14.82,8.02,1.52,11.7.48ZM60.75,47.04c-2.11-.81-4.19-1.76-6.52-.62,2.07,1.49,4.3.87,6.52.62ZM104.86,57.94c-1.04-.62-3.34-1.48-4.46-1.9-9.74-3.65-19.01-8.23-27.23-14.83-.95-.76-5.05-3.97-6.26-6.03,0,0,5.88,4.55,6.85,5.2,10.28,6.83,24.92,13.98,36.07,16,.39-.02-4.51-2.01-5.4-2.29-14.43-4.59-27.1-12.26-38-23.02-2.36-2.33-4.73-4.65-7.1-6.98,0,0,6.7,5.07,10.04,7.62,3.65,2.79,7.23,5.68,10.91,8.42.89.66-8.15-8.08-13.55-13.04-5.16-4.74-10.21-9.6-16.11-13.39-.46-.3-.79-.83-1.18-1.25,0,0,2.14.84,3.17,1.36,6.11,3.09,10.88,7.97,15.86,12.57,5.78,5.34,11.72,10.46,18.48,14.46,1.07.63,13.48,7.68,2.84.61-8.14-5.41-14.35-13.28-21.64-19.77-4.09-3.64-8.31-7.14-12.7-10.38-2.05-1.52-4.56-3-6.98-3.25-5.67-.6-10.91-2.09-16.14-4.47-4.93-2.24-12.42.89-15.1,5.5.6.16,1.14.38,1.69.44,4.75.51,9.28,1.93,13.36,4.38,5.28,3.16,10.72,7.88,15.53,11.72,6.03,4.82,10.5,10.15,16.15,15.45,15.54,14.57,35.28,16.31,40.88,16.88ZM170.82,34.9c.57-5.28-.46-10.19-4.74-13.74-2.52-2.09-5.42-2.34-8.29-.82-2.78,1.47-4.94,7.08-2.04,12.21,1.69,2.86,7.2,4.86,10.75,3.32-.75,1.99-1.97,3.27-2.91,4.74-3.46,5.38-8.13,9.37-13.43,12.64-12.79,7.89-26.61,9.91-41.17,7.51-4.29-.7-13.85-1.8-19.64-3.2,7.02,3.69,21.36,5.56,27.75,5.85,12.21.56,23.16-2.66,33.73-7.91,1.3-.83,4.46-2.44,4.46-2.44-8.03,8.19-27.96,13.68-42.81,12.23-3.96-.39-11.92-2.11-10.73-1.71,12.02,5.75,27.08,5.02,39.03.95,8.25-2.82,15.73-7.08,21.91-13.5,4.33-4.5,7.44-9.74,8.13-16.14ZM173.27,18.19c-1.95-2.67-4.35-3.99-7.53-4.23-2.12-.16-3.33.43-4.64,1.97,7.73,1.64,11.92,6.21,12.68,13.84.45,4.56-.3,8.92-2.11,13.1-.52,1.21-2.43,4.7-2.03,4.61,3.63-3.32,5.49-8.81,6.84-13.7,1.4-6.25.13-11.01-3.21-15.58ZM46.02,18.44c1.97,1.43,3.76,2.77,5.6,4.04,1.83,1.26,7.4,5.71,7.4,5.71-4.63-5.99-9.76-8.93-13-9.75ZM39.85,11.36c-3.47-2.55-6.92-4.63-11.14-4.03,4.65,1,16.23,9.05,16.23,9.05-.13-.32-3.3-3.7-5.09-5.01ZM164.63,24.3c-2.64-1.2-5.65-.84-7.61,1.88,1.66-.6,2.85-.74,4.15-.48,1.33.27,3.25.72,3.04,3.08,0,0-2.98-1.27-4.28-.08-1.48,3.57,2.56,5.79,7.7,4.86,1.05-4.15.34-7.52-2.99-9.25ZM96.49,39.76s0,0,0,0c-.09.21-.05.11,0,0h0c.03-.06.07-.15.13-.29-.06.13-.1.22-.13.28h0s0,0,0,0c0,0,0,0,0,0-.05.1-.09.2,0,0Z"/>
    </g>
  </g>
</svg>