<?xml version="1.0" encoding="UTF-8"?>
<svg id="Layer_2" data-name="Layer 2" xmlns="http://www.w3.org/2000/svg" viewBox="0 0 88.75 102.24">
  <defs>
    <style>
      .cls-1 {
        fill: #fff;
      }

      .cls-2 {
        fill: #251500;
      }
    </style>
  </defs>
  <g id="OBJECTS">
    <g>
      <path class="cls-1" d="M88.27,45.39c-.78-2.68-.63-5.23-.04-7.94.44-2.02.26-4.22.12-6.32-.08-1.2-.65-2.4-1.96-2.77-1.39-.38-2.13.7-2.89,1.61-.61.72-1.18,1.46-2.12,2.62-.4-5.59-.16-10.89-6.59-12.14-.21-.76-.47-1.45-.59-2.17-.71-4.43-3.28-7.35-7.08-9.23-1.54-.76-3.14-1.44-4.75-2.03-3.91-1.43-7.33-3.54-10.06-7.04,0,1.29-.2,2.62.04,3.86.95,5.01,1.96,10,3.08,14.97,1,4.45,1.98,8.89,1.85,13.48-.29,10.45-6.21,18.18-15.86,20.65-1.57.4-3.19.66-4.81.81-4.14.4-8.29.63-12.42,1.08-5.09.55-9.92,2.02-14.21,5.03-13.36,9.39-13.3,30.08.12,39.37,8.42,5.83,19.26,2.8,23.65-6.61,2.95-6.33.94-14.33-4.77-18-1.85-1.18-4.11-1.67-6.23-2.49.25-.18.64-.55,1.09-.76,3.58-1.69,7.23-1.68,10.75.05,2.68,1.32,5.25,2.91,7.8,4.48,4.07,2.51,8.32,4.54,13.04,5.27,9.11,1.41,16.84-1.23,22.6-8.83,1.18-1.56,1.54-3.74,2.57-5.45,1.42-2.36,2.17-4.9,2.5-7.59.21-1.69.95-2.96,2.22-3.99,3.23-2.61,4.11-6.02,2.96-9.97Z"/>
      <path class="cls-2" d="M52.31,0c2.73,3.5,6.14,5.61,10.06,7.04,1.61.59,3.21,1.27,4.75,2.03,3.81,1.88,6.38,4.8,7.08,9.23.11.72.38,1.42.59,2.17,6.43,1.24,6.19,6.55,6.59,12.14.94-1.16,1.51-1.91,2.12-2.62.77-.91,1.5-2,2.89-1.61,1.31.36,1.88,1.56,1.96,2.77.13,2.1.31,4.3-.12,6.32-.59,2.71-.75,5.26.04,7.94,1.15,3.94.27,7.35-2.96,9.97-1.27,1.03-2.01,2.3-2.22,3.99-.33,2.69-1.08,5.23-2.5,7.59-1.03,1.71-1.39,3.9-2.57,5.45-5.76,7.59-13.49,10.23-22.6,8.83-4.72-.73-8.97-2.76-13.04-5.27-2.55-1.57-5.12-3.16-7.8-4.48-3.52-1.73-7.16-1.74-10.75-.05-.45.21-.84.58-1.09.76,2.12.82,4.39,1.31,6.23,2.49,5.72,3.67,7.73,11.67,4.77,18-4.39,9.41-15.23,12.43-23.65,6.61-13.42-9.29-13.48-29.99-.12-39.37,4.29-3.01,9.11-4.48,14.21-5.03,4.13-.45,8.29-.68,12.42-1.08,1.61-.16,3.24-.41,4.81-.81,9.65-2.47,15.58-10.2,15.86-20.65.13-4.6-.85-9.04-1.85-13.48-1.12-4.97-2.14-9.96-3.08-14.97-.24-1.24-.04-2.57-.04-3.86ZM25.09,66.54c4.26-1.39,8.55-1.31,12.1-.17,2.49.81,4.93,1.78,7.37,2.73,2.44.96,4.85,2.01,7.29,2.99,4.13,1.66,8.4,2.34,12.86,1.94-1.32.47-2.62.75-3.94.8-3.79.16-7.29-1.15-10.76-2.46-4.31-1.63-8.59-3.35-12.89-5.04-1.29-.34-2.65-.96-4.61-.78,1.45.12,5.03,1.44,5.31,1.57,4.26,2.01,8.51,4.02,12.81,5.94,2.74,1.23,5.58,2.04,8.61,2.2,4.02.22,7.83-.64,11.55-2.09-4.77,3.38-10.09,3.84-15.48,2.55-3.47-.83-6.77-2.44-10.14-3.73-2.27-.87-4.51-1.79-6.77-2.68-.26-.05-.51-.1-.77-.14l.56.4c2.07,1.32,4.04,2.84,6.22,3.9,3.17,1.54,6.4,3.08,9.77,4.03,6.7,1.89,13.09.76,18.91-3.24,1.77-1.21,3.29-2.72,4.55-5.02-1.97.68-3.45,1.46-5,1.68-8.18,1.2-16.23.71-24.02-2.41-2.44-.98-4.87-2.01-7.33-2.94-3.51-1.33-7.12-2.19-10.88-1.82-3.49.38-6.07,2.03-5.32,1.78ZM47.43,53.41c3.35.64,5.83-1.27,7.85-3.44,4.29-4.63,6.84-10.16,7.16-16.71.29-5.9-1.57-18.36-2.47-21.24,2.98,2.86,3.54,10.35,3.8,15.23.27,4.98.15,10.01-2.76,16.13.68-.63,1.47-1.64,1.57-1.78.27-.37.51-.77.75-1.16,3.13-5.1,4.48-10.69,4.51-16.68,0-1.15-.25-4.64-.57-6.35,2.19,3.54,1.78,8.3,1.31,10.94-.45,2.55-1.01,5.12-1.94,7.51-.96,2.48-2.26,4.86-3.71,7.08-1.39,2.14-3.15,4.03-4.75,6.03.8-.06,1.34-.38,1.83-.77,7.61-6.07,11.5-14.12,12.02-23.95.42-7.96-1.52-11.07-8.54-14.31-2.79-1.28-5.42-2.92-8.13-4.38-.18-.1-.42-.06-.85-.12.3,1.08.53,1.96.79,2.83,1.08,3.64,2.26,7.25,3.25,10.92,1.4,5.22,2.25,10.53,1.42,15.97-1.25,8.25-5.17,14.55-12.62,18.26-.02.03-.04.06-.07.08.05-.03.09-.07.14-.1ZM29.12,91.12s-5.35,9.3-15.76,5.21c-3.09-1.7-5.22-4.3-6.37-7.67-2.26-6.64-1.66-13,2.12-18.93,2.91-4.56,6.96-7.75,11.77-9.97.85-.39,1.66-.84,2.5-1.27-3.59-.05-6.81,1.03-9.84,2.72C-1.02,69.31-.02,88.93,11.85,97.12c7.35,5.07,16.93,2.17,20.42-6.2,2.29-5.51-.13-12.37-5.26-15.1-2.82-1.5-5.4-1-7.92.7-.87.59-1.16,1.3-.56,2.29,3.77-2.33,5.34-2.4,7.02-.33-.8.06-1.56.11-2.71.2.94.8,1.58,1.35,2.47,2.11-1.28.07-2.17.12-3.41.18,1.37.95,3.66,2.46,4.68,3.17-.38-.05-1.06-.11-1.54-.26-1.58-.3-3.17-.6-5.07-.95,1.73,3.43,4.99,2.89,7.39,4.01-.41,2.96-2.7,5.98-5.13,6.69-1.95.57-3.78.12-5.39-1.11-.71-.55-1.28-1.28-.86-2.33,1.71.53,3.32,1.46,4.89,1.42,1.89-.06,2.91-1.83,3.95-3.7-.91-.07-1.51-.15-2.12-.16-1.63-.03-2.97-.71-4.1-1.88-2.57-2.67-3.82-5.82-3.15-9.62.87-4.95,3.67-8.78,7.43-11.6,6.04-4.52,13.01-6.31,20.49-5.74,1.98.15,3.96.38,5.93.62,2.44.3,4.82-.11,6.69-1.64,2.88-2.37,5.57-5,8.2-7.66,2.5-2.53,4.86-5.23,7.23-7.9,1.2-1.36,2.44-2.74,3.37-4.3,1.68-2.8,3.02-7.43,2.75-11.52-.18,1.25-.9,4.47-1.29,5.57-.84,2.39-1.48,4.89-3.46,6.71,2.68-4.88,3-10.17,2.96-15.56-1.89-.11-1.91-.11-2.11,1.85-1.02,9.95-4.59,18.28-12.93,24.31-4.14,2.99-8.4,4.95-13.24,5.93-1.14.23-2.28.48-3.42.72,4.22.86,8.31-.03,12.42-.42-3.41,1.73-7.03,2.42-10.76,2.47-3.07.04-6.15.03-9.22-.13-6.59-.33-12.13,2.22-17.28,6.17-6.34,4.86-9.71,15.11-7.2,22.46.22.64.29,1.33.54,2.54-4.84-7.31-1.61-20.12,5.97-25.7-.04-.1-.09-.2-.07-.17,0-.01.05.1.11.21-.59.05-1.3-.1-1.74.19-7.76,4.99-12.67,14.54-8.65,25,3.32,8.64,13.08,10.58,19.42,3.93.49-.51,1.02-.98,1.54-1.47ZM75.61,50.48c-.63.96-1.17,1.99-1.89,2.87-5.61,6.94-12.73,9.83-21.45,8.39-4.47-.74-8.95-1.4-13.49-.85-1.88.23-3.87.23-5.98,1.63,5.84.51,10.77,2.59,15.71,4.64,6.29,2.61,12.81,3.92,19.61,3.35,3.31-.27,6.41-1.23,8.98-3.48,1.97-1.72,3.08-3.89,3.07-6.87-3.11,1.96-5.79,3.83-8.63,5.41-4.16,2.31-6.56,2.78-9.25,2.15.45-.22.74-.41,1.06-.51,8.52-2.72,15.52-7.78,21.42-14.57,1.81-2.08,2-4.89.4-7.01-.43.76-.84,1.47-1.23,2.18-2.01,3.67-4.44,7-7.36,9.97-4.1,4.17-8.92,6.96-14.66,7.84-3.99.61-7.93.43-11.7-1.21,1-.08,1.97.02,2.94.17,7.35,1.19,14.04-.34,19.81-5.29,5.16-4.43,9.06-9.86,11.52-16.3,1.23-3.21,2.03-6.56,1.72-10.07-.05-.57-.32-1.12-.52-1.81-.44.32-.72.43-.85.64-3.06,4.83-7.31,8.45-11.55,12.09-4.35,3.74-7.85,8.21-10.64,13.28-.33.59-.52,1.26-.96,2.36,5.92-1.54,9.5-5.83,13.92-9ZM29.15,90.73c2.36-3.44,2.29-6.07-.3-10.25l.02.09c.05.43,0,.93.18,1.28,1.42,2.58,1.55,5.18.29,7.86-.14.31-.19,1.02-.19,1.02ZM49.07,66.23c1.19.44,2.73.87,3.94,1.22,2.54.58,5.4.63,6.74.3-.29-.14-1.55-.24-2.18-.3-4.21-.36-7.51-1.85-11.27-3.66-2.56-1.23-5.19-1.92-8.12-1.86,3.78,1.41,7.26,2.96,10.88,4.3Z"/>
    </g>
  </g>
</svg>