<?xml version="1.0" encoding="UTF-8"?>
<svg id="Layer_2" data-name="Layer 2" xmlns="http://www.w3.org/2000/svg" viewBox="0 0 133.46 135.35">
  <defs>
    <style>
      .cls-1 {
        fill: #fff;
      }

      .cls-2 {
        fill: #251500;
      }
    </style>
  </defs>
  <g id="OBJECTS">
    <g>
      <path class="cls-1" d="M133.39,7.74c-.17-1.27-.88-1.67-2.09-1.25-.34.12-.65.31-.94.52-1.81,1.25-3.76,1.26-5.68.44-1.9-.81-3.7-1.86-5.58-2.72-2.86-1.3-5.66-2.88-8.66-3.73-12.56-3.55-24.15,2.72-27.55,14.95-1.62,5.85-1.53,11.81.47,17.64,2.45,7.16,6.88,13.09,11.92,18.64,3.56,3.92,7.21,7.76,10.73,11.7,1.6,1.79,3.07,3.66,4.44,5.59v18.53c-1.65-.78-3.06-2.14-3.65-3.82-1.64-4.64-4.69-6.51-9.54-5.98-.82.09-1.76-.08-2.51-.42-3.07-1.39-6.16-1.17-9.25-.23-.51.15-.91.68-1.3.98,1.54,1.91,3.15,3.49,4.26,5.37,1.17,1.98,1.75,4.29,2.78,6.37.94,1.89,1.97,3.79,3.24,5.48-1.67-1.29-3.53-2.33-5.4-3.28-2.05-1.04-4.32-1.64-6.28-2.82-1.85-1.12-3.42-2.75-5.3-4.32-.3.39-.81.8-.97,1.32-.92,3.14-1.14,6.27.23,9.39.33.76.5,1.72.41,2.55-.52,4.92,1.32,8.01,5.9,9.67,1.75.64,3.15,2.2,3.89,4h-18c-2.05-1.46-4.02-3.06-5.91-4.79-3.89-3.57-7.68-7.27-11.54-10.88-5.47-5.11-11.32-9.6-18.38-12.09-5.75-2.03-11.63-2.13-17.39-.48-12.06,3.45-18.24,15.2-14.74,27.94.84,3.04,2.39,5.88,3.68,8.78.85,1.91,1.89,3.73,2.68,5.66.81,1.95.8,3.93-.43,5.76-.2.3-.4.62-.51.96-.41,1.23-.01,1.96,1.24,2.12,2.2.3,4.18-.32,5.9-1.8.16-.13.3-.28.45-.42h117.23V14.17c.14-.15.28-.29.41-.45,1.45-1.74,2.06-3.75,1.77-5.98ZM28.77,112.29c.14-2.1-.39-4.38-1.71-6.45-.48-.75-1.04-1.43-1.78-2.44,1.19-.4,2.13-.87,3.13-1.03,5.41-.9,10.52.26,15.28,2.93,1.43.8,2.56,2.21,3.75,3.43,1.22,1.24,2.47,2.42,3.76,3.56h-22.42ZM110.43,112.29h-10.01c.09-.52.18-1.04.24-1.58.5-4.47-.48-8.32-2.85-11.52,3.15,2.41,6.95,3.4,11.36,2.89.43-.05.85-.11,1.27-.18v10.39ZM110.43,51.58c-1.03-1.19-2.1-2.34-3.22-3.47-1.2-1.21-2.59-2.36-3.38-3.8-2.63-4.82-3.78-10-2.89-15.49.16-1,.62-1.96,1.02-3.17.99.75,1.67,1.33,2.4,1.81,1.95,1.28,4.08,1.82,6.07,1.75v22.38Z"/>
      <g>
        <path class="cls-2" d="M113.25,7.65c2.5,1.02,4.89,2.32,7.41,3.29,1.45.56,3.07.72,4.61,1.06,0-.08,0-.16,0-.23-3.71-1.7-7.42-3.42-11.15-5.08-1.31-.59-2.66-1.13-4.05-1.52-6.39-1.77-12.35-.81-17.77,3.01-1.1.77-2.29,2.45-2.68,3.5,1.82-1.28,3.15-2.36,4.61-3.22,6.17-3.59,12.56-3.44,19.01-.82Z"/>
        <path class="cls-2" d="M104.84,20.33c-.38,2.12.53,3.54,2.22,4.43,1.18.62,2.51,1.26,4.24-.2-3.24-.22-5.62-1.16-6.46-4.23Z"/>
        <path class="cls-2" d="M4.65,120.77c.85,1.91,1.89,3.73,2.68,5.66.81,1.95.8,3.93-.43,5.76-.2.3-.4.62-.51.96-.41,1.23-.01,1.96,1.24,2.12,2.2.3,4.18-.32,5.9-1.8.16-.13.3-.28.45-.42h117.23V14.17c.14-.15.28-.29.41-.45,1.45-1.74,2.06-3.75,1.77-5.98-.17-1.27-.88-1.67-2.09-1.25-.34.12-.65.31-.94.52-1.81,1.25-3.76,1.26-5.68.44-1.9-.81-3.7-1.86-5.58-2.72-2.86-1.3-5.66-2.88-8.66-3.73-12.56-3.55-24.15,2.72-27.55,14.95-1.62,5.85-1.53,11.81.47,17.64,2.45,7.16,6.88,13.09,11.92,18.64,3.56,3.92,7.21,7.76,10.73,11.7,1.6,1.79,3.07,3.66,4.44,5.59v18.53c-1.65-.78-3.06-2.14-3.65-3.82-1.64-4.64-4.69-6.51-9.54-5.98-.82.09-1.76-.08-2.51-.42-3.07-1.39-6.16-1.17-9.25-.23-.51.15-.91.68-1.3.98,1.54,1.91,3.15,3.49,4.26,5.37,1.17,1.98,1.75,4.29,2.78,6.37.94,1.89,1.97,3.79,3.24,5.48-1.67-1.29-3.53-2.33-5.4-3.28-2.05-1.04-4.32-1.64-6.28-2.82-1.85-1.12-3.42-2.75-5.3-4.32-.3.39-.81.8-.97,1.32-.92,3.14-1.14,6.27.23,9.39.33.76.5,1.72.41,2.55-.52,4.92,1.32,8.01,5.9,9.67,1.75.64,3.15,2.2,3.89,4h-18c-2.05-1.46-4.02-3.06-5.91-4.79-3.89-3.57-7.68-7.27-11.54-10.88-5.47-5.11-11.32-9.6-18.38-12.09-5.75-2.03-11.63-2.13-17.39-.48-12.06,3.45-18.24,15.2-14.74,27.94.84,3.04,2.39,5.88,3.68,8.78ZM15.95,130.49c.59-1.07,1.02-2.24,1.32-3.49.25-1.06.43-2.15.7-3.49,2.34-.36,4.16-1.29,5.22-3.47.21-.43.78-.73,1.24-.95,1.82-.85,3.11-2.38,3.8-4.22h26.09c2.37,1.83,4.87,3.47,7.53,4.88,7.43,3.96,15.24,6.1,23.65,5.13,1.73-.2,3.47-.59,5.15-1.1,1.38-.42,2.59-.98,3.67-1.66l9.58,2.56,11.02-2.95-11.02-2.95-7.97,2.13c1.8-1.58,3.07-3.62,3.86-6.05h13.23v-13.59c2.6-.83,4.76-2.2,6.4-4.21l-2.36,8.83,2.95,11.02,2.95-11.02-2.68-10.01c.74-1.15,1.34-2.46,1.79-3.96.5-1.7.89-3.46,1.08-5.22.95-8.52-1.15-16.44-5.06-23.98-1.46-2.82-3.17-5.47-5.07-7.97v-26.03c1.93-.67,3.54-2.02,4.42-3.95.21-.47.51-1.05.93-1.26,2.15-1.08,3.07-2.91,3.42-5.29,1.33-.27,2.4-.45,3.45-.71,1.22-.3,2.36-.73,3.4-1.32v114.29H15.95ZM27.07,105.84c-.48-.75-1.04-1.43-1.78-2.44,1.19-.4,2.13-.87,3.13-1.03,5.41-.9,10.52.26,15.28,2.93,1.43.8,2.56,2.21,3.75,3.43,1.22,1.24,2.47,2.42,3.76,3.56h-22.42c.14-2.1-.39-4.38-1.71-6.45ZM27.5,97.35c-2.38.69-4.93.64-6.92,2.9,1.99-.76,3.71-1.04,5.42-1.24,1.71-.2,3.45-.04,5.18-.04-1.92.89-3.94,1.1-5.78,1.8-1.87.72-3.55,1.54-5.67,1.77-5.08.56-5.71,4.83-5.03,6.92.76,2.34,2.94,4.07,5.15,3.97.52-.02,1.45-.13,2.72-.8-2.12,0-2.95-.53-3.98-1.18-1.03-.65-2.02-2.38-1.93-3.73.09-1.37.9-2.11,2.01-2.63,2.15-1.02,4.17-.75,5.84.96,1.96,2.02,2.71,4.47,1.9,7.28-.65,2.25-2.52,3.74-4.95,3.85-3.4.15-6.17-1.27-8.21-4.09-3-4.14-2.67-9.71.77-13.93,4.05-4.98,10.6-6.62,16.81-4.2.49.19.92.54,1.38.81-6.4-1.18-13.34-.36-16.63,4.79,5.61-3.89,9-4.09,11.92-3.2ZM89.45,119.04c.06-.02.12-.05.18-.07-.01.03-.02.06-.04.09-.02.02-.09,0-.14-.01ZM89.69,110.72c.45.28,1,.5,1.24.91,1.41,2.34.92,5.08-1.18,7.15.6-2.69,1.08-5.38-.06-8.06ZM91.89,119.73s.08.04.12.06c-.01.01-.02.03-.04.04-.03-.03-.06-.07-.09-.1ZM97.8,99.19c3.15,2.41,6.95,3.4,11.36,2.89.43-.05.85-.11,1.27-.18v10.39h-10.01c.09-.52.18-1.04.24-1.58.5-4.47-.48-8.32-2.85-11.52ZM118.12,93.32s-.04-.08-.06-.12c.03.03.07.06.1.09-.01.01-.03.02-.04.04ZM95.99,27.89c-.87-2.96-.68-6.4,3.16-12.09-5.08,3.33-5.88,10.37-4.72,16.86-.27-.46-.61-.9-.8-1.39-2.39-6.3-.77-12.94,4.14-17.05,4.16-3.49,9.65-3.82,13.73-.78,2.78,2.07,4.18,4.89,4.03,8.33-.11,2.47-1.58,4.37-3.8,5.02-2.77.82-5.19.06-7.18-1.93-1.69-1.69-1.95-3.74-.95-5.92.52-1.12,1.24-1.95,2.6-2.04,1.33-.09,3.04.91,3.68,1.96.64,1.04,1.16,1.88,1.16,4.03.66-1.29.76-2.23.79-2.76.1-2.24-1.6-4.45-3.91-5.22-2.05-.69-6.27-.05-6.82,5.1-.23,2.15-1.04,3.86-1.75,5.75-.7,1.87-.9,3.91-1.78,5.86,0-1.75-.15-3.52.04-5.25.2-1.74.47-3.48,1.22-5.5-2.23,2.02-2.18,4.6-2.86,7.02ZM100.94,28.81c.16-1,.62-1.96,1.02-3.17.99.75,1.67,1.33,2.4,1.81,1.95,1.28,4.08,1.82,6.07,1.75v22.38c-1.03-1.19-2.1-2.34-3.22-3.47-1.2-1.21-2.59-2.36-3.38-3.8-2.63-4.82-3.78-10-2.89-15.49ZM86.75,32.73c1.98,2.31,4.08,4.32,6.09,6.61.97,1.1,4.56,4.45,6.25,5.28-.61-.8-2.49-2.41-4.51-4.73-2.54-2.91-4.87-5.96-6.46-9.52-1.89-4.23-2.53-8.52-.97-12.99.09-.25.13-.52.16-.78.02-.17,1.14-2.85,1.12-3.03-2.03,1.48-3.24,4.11-3.84,10.77-1.03-1.28-1.3-2.4-1.11-4.45.86-8.82,9.29-16.82,18.26-17.37,4.53-.28,8.82.56,12.89,2.47,1.79.84,3.52,1.82,5.29,2.72,3.32,1.7,6.7,3.17,10.82,1.84-.68,2.97-2.61,4.4-4.89,5.55-2.32,1.16-4.68.84-7.3-.03,1.46,2.21,1.51,4.03.05,6.14-.19-.59-.35-.89-.38-1.2-1.12-10.04-13.61-14.41-21.72-7.99-5.64,4.46-7.42,10.34-6.05,17.2,1.08,5.41,4.46,9.43,8.34,13.16,3.3,3.17,6.59,6.35,9.74,9.66,6.4,6.72,10.53,14.64,12.29,23.71.49,2.5,1.03,5.03.3,7.66-.2-.75-.45-1.49-.59-2.25-2.32-12.9-8.94-23.36-18.68-32.05-4.15-3.71-8.3-7.42-12.4-11.18-2.01-1.85-3.4-4.14-4.46-6.63l.11-.11-.09.14c.58.47,1.26.85,1.74,1.4ZM88.48,39.72c1.52,1.43,3.02,2.89,4.56,4.29,3.52,3.19,7.13,6.3,10.59,9.56,1.28,1.21,4.24,4.07,6.18,7.43-.16-.11-5.54-5.6-6.89-6.74-1.91-1.61-4.01-3.54-5.96-5.11-1.8-1.45-6.97-5.89-8.48-9.42ZM95.86,50.09c-.18-.19,9.52,7.94,13.38,13.3.36.51,3.08,4.28,3.33,4.87-4.67-5.59-11.99-13.15-16.71-18.17ZM113,73.51c1.52,2.59,2.83,5.29,3.9,8.14.4,1.07.74,2.22.79,3.35.09,1.99-.7,2.9-2.64,3.52-.66.21-1.35.25-2.06.21v-15.21ZM117.39,90.86s-.06.03-.09.04l.07-.18s.03.12.01.14ZM117.12,91.02c-2.03,2.13-4.74,2.63-7.05,1.2-.41-.25-.62-.81-.9-1.26,2.64,1.16,5.29.67,7.94.07ZM90.17,83.04c.78.76,1.69,1.43,2.28,2.32,1.05,1.55,1.84,3.27,2.81,4.88.92,1.53,1.77,3.14,2.91,4.5,2.68,3.16,5.38,4.18,10.06,3.79-.52-.15-2.17-.2-3.13-.47-2.92-.83-4.87-2.26-6.37-4.75-.64-1.07-1.23-2.19-1.72-3.33-1.88-4.34-3.68-8.72-8.32-11.16,4.89-1.27,7.1,1.95,9.51,5.45.18-.62.29-.88.32-1.15.02-.26-.04-.52-.1-1.08,1.61.63,2.37,1.81,2.75,3.1.89,3.03,4.18,6.85,3.93,6.24-.5-1.23-1.26-2.38-1.64-3.64-.84-2.83-1.65-5.64-4.54-7.61,3.44-.15,5.51,1.35,6.35,4.44.49,1.8.67,3.68,1.19,5.47.89,3.1,3.89,4.92,7.09,4.37.96-.17,1.87-.64,2.82-.89.55-.14,1.14-.13,1.72-.17-4.63,4.23-9.56,4.27-14.15-.2-1.89-1.84-3.28-4.18-4.77-6.12.09,2.68,3.09,7.06,6.6,8.93,3.6,1.93,5.95,2.48,12.13.08-.68.75-.98,1.22-1.41,1.54-5.48,4.09-14.3,3.59-19.16-1.21-3.74-3.7-5.77-8.36-7.17-13.32ZM83.39,106.76c-3.04-.85-4.53-2.95-4.38-6.44,1.94,2.92,4.71,3.75,7.5,4.6,1.24.38,2.37,1.16,3.59,1.66.6.25-3.16-3.09-6.15-3.99-1.28-.39-2.44-1.16-3.06-2.79.55.06.81.13,1.06.11.26-.03.52-.14,1.13-.32-3.45-2.45-6.62-4.69-5.37-9.65,2.4,4.7,6.72,6.52,11,8.44,1.13.5,2.23,1.09,3.28,1.75,2.46,1.52,3.87,3.51,4.69,6.46.27.98.32,2.65.46,3.18.39-4.75-.62-7.48-3.74-10.2-1.34-1.16-2.92-2.02-4.44-2.95-1.59-.98-3.28-1.79-4.81-2.85-.87-.6-1.54-1.52-2.28-2.31,4.89,1.42,9.49,3.47,13.13,7.27,4.73,4.93,5.23,13.87,1.2,19.43-.31.43-.77.74-1.51,1.43,2.37-6.28,1.82-8.66-.08-12.31-1.85-3.56-6.17-6.61-8.81-6.69,1.91,1.51,4.22,2.92,6.04,4.84,4.41,4.65,4.37,9.66.2,14.35.05-.58.03-1.19.17-1.74.24-.97.71-1.89.87-2.86.55-3.24-1.25-6.28-4.31-7.19-1.76-.52-3.62-.71-5.39-1.21ZM87.49,114.86c.01.62-.03,1.24-.21,1.83-.61,1.97-1.5,2.77-3.47,2.68-1.11-.05-2.24-.4-3.3-.81-2.65-1.02-5.18-2.27-7.6-3.7h14.58ZM67.31,114.16c-.58-.25-4.3-3.01-4.8-3.38-5.29-3.91-13.31-13.75-13.12-13.56,4.95,4.78,12.41,12.21,17.92,16.94ZM48.45,98.34c1.55,1.97,3.45,4.11,5.04,6.04,1.13,1.37,6.54,6.82,6.65,6.99-3.31-1.97-6.13-4.97-7.32-6.27-3.21-3.51-6.28-7.16-9.43-10.74-1.38-1.57-2.82-3.09-4.23-4.63,3.48,1.53,7.86,6.78,9.29,8.6ZM2.49,103.18c.54-9.1,8.42-17.65,17.12-18.52,2.02-.2,3.12.08,4.39,1.12-6.57.61-9.17,1.83-10.62,3.89.17.02,2.82-1.12,2.99-1.14.26-.03.53-.08.77-.17,4.4-1.59,8.63-.94,12.81.98,3.51,1.61,6.52,3.98,9.39,6.55,2.28,2.05,3.87,3.96,4.66,4.58-.81-1.71-4.12-5.35-5.2-6.33-2.26-2.04-4.24-4.16-6.52-6.18-.54-.48-.91-1.18-1.38-1.76l-.14.09.11-.11c2.46,1.07,4.72,2.48,6.54,4.52,3.71,4.16,7.37,8.36,11.03,12.57,8.57,9.88,18.89,16.59,31.6,18.95.75.14,1.48.39,2.22.59-2.6.74-5.09.19-7.56-.3-8.94-1.79-16.75-5.97-23.38-12.47-3.26-3.2-6.4-6.54-9.52-9.88-3.67-3.93-7.64-7.36-12.97-8.46-6.77-1.39-12.56.42-16.96,6.14-6.33,8.22-2.03,20.9,7.88,22.03.31.04.61.19,1.18.39-2.07,1.49-3.87,1.44-6.05-.05.86,2.66,1.18,5.05.03,7.41-1.13,2.32-2.54,4.27-5.47,4.96,1.31-4.18-.14-7.6-1.81-10.98-.89-1.79-1.85-3.54-2.68-5.36-1.89-4.13-2.71-8.49-2.44-13.08Z"/>
        <path class="cls-2" d="M6.59,115.75c1.64,3.78,3.34,7.54,5.01,11.31.08,0,.15,0,.23,0-.34-1.56-.49-3.2-1.05-4.68-.96-2.55-2.24-4.97-3.25-7.51-2.58-6.54-2.72-13.02.81-19.28.84-1.49,1.91-2.83,3.17-4.68-1.04.4-2.69,1.61-3.46,2.72-3.77,5.5-4.72,11.54-2.97,18.02.38,1.4.92,2.77,1.49,4.1Z"/>
        <path class="cls-2" d="M24.22,112.88c1.44-1.76.81-3.1.2-4.3-.88-1.72-2.28-2.64-4.37-2.25,3.03.85,3.96,3.27,4.17,6.55Z"/>
        <polygon class="cls-2" points="29.27 121.73 40.29 124.67 51.31 121.73 40.29 118.78 29.27 121.73"/>
        <polygon class="cls-2" points="117.05 42.3 119.99 53.32 122.94 42.3 119.99 31.28 117.05 42.3"/>
      </g>
    </g>
  </g>
</svg>