<?xml version="1.0" encoding="UTF-8"?>
<svg id="Layer_2" data-name="Layer 2" xmlns="http://www.w3.org/2000/svg" viewBox="0 0 139.31 131.57">
  <defs>
    <style>
      .cls-1 {
        fill: #fff;
      }

      .cls-2 {
        fill: #251500;
      }
    </style>
  </defs>
  <g id="OBJECTS">
    <g>
      <path class="cls-1" d="M.79,47.81c3.19,11.96,11.25,18.65,22.82,21.07,7.84,1.64,15.19-.29,22.21-3.91.85-.44,1.69-.89,2.94-1.02-.47.77-.93,1.56-1.42,2.32-1.59,2.49-3.37,4.88-4.76,7.48-2.07,3.89-2.01,7.94.57,11.53,1.51,2.1,2.81,4.23,3.97,6.55,1.07,2.13,2.84,3.9,4.4,5.73.87,1.02,1.2,2.07,1.22,3.42.07,4.62,2.11,8.1,6,10.46.71.43,1.35,1.15,1.75,1.89,1.91,3.56,4.21,6.51,6.06,10.1.96,2.11,2.52,4.76,3.1,8.13.17-.24,2.14-6.02,3.1-8.13,1.85-3.6,4.15-6.54,6.06-10.1.4-.74,1.05-1.46,1.75-1.89,3.89-2.36,5.93-5.84,6-10.46.02-1.36.35-2.4,1.22-3.42,1.56-1.84,3.33-3.61,4.4-5.73,1.17-2.32,2.46-4.45,3.97-6.55,2.59-3.59,2.65-7.64.57-11.53-1.39-2.61-3.17-4.99-4.76-7.48-.49-.76-.95-1.55-1.42-2.32,1.25.13,2.09.58,2.94,1.02,7.02,3.62,14.36,5.55,22.21,3.91,11.57-2.41,19.63-9.11,22.82-21.07,3.02-11.31-2.87-22.25-13.48-25.6-9.61-3.04-17.72,1.55-20.39,11.54-.18.68-.44,1.33-.66,2-5.38.71-9.12-1.8-12.59-5.95,7.11-1.12,12.64-4.32,16.45-10.27C111.52,13.8,112.68,3.62,109.85,0c-.52.92-1.07,1.67-1.39,2.52-1.27,3.35-3.74,4.94-7.1,5.13-1.84.11-3.69-.05-5.54-.04-3.69,0-7.4-.27-11.05.1-8.31.85-13.97,6.44-15.03,14.9-.03.28-.05.56-.08.84-.03-.28-.04-.56-.08-.84-1.06-8.46-6.72-14.06-15.03-14.9-3.65-.37-7.37-.1-11.05-.1-1.85,0-3.7.15-5.54.04-3.36-.2-5.83-1.78-7.1-5.13-.32-.85-.87-1.6-1.39-2.52-2.84,3.62-1.67,13.8,2.01,19.53,3.81,5.95,9.34,9.15,16.45,10.27-3.46,4.15-7.2,6.66-12.59,5.95-.23-.67-.48-1.33-.67-2-2.68-9.99-10.78-14.58-20.39-11.54C3.66,25.56-2.23,36.5.79,47.81Z"/>
      <g>
        <path class="cls-2" d="M87.76,50.55c-.27-.31,4.05,1.8,5.32,2.28-.26-1.01-4.27-4.24-4.92-4.72-4.06-3.03-10.11-10.19-10.37-10.14.45,1,1.05,2.38,1.55,3.32,2.68,5.02,8.87,12.3,10.49,13.6-4.6-2.7-7.07-6.5-10.08-9.73-.7-.75-2.58-3.39-2.58-3.39.56,1.11,1.47,3.49,2.17,4.5,4.43,6.39,10.02,11.37,16.97,14.67,5.04,2.39,9.5,4.06,15.66,3.48,10.59-1,17.57-6.1,21.58-15.35,1.15-2.71,1.48-7.18,1.28-8.88-.18-1.56-.72-4.34-1.92-5.46,2.4,7.82-.23,12.86-2.35,15.82,1.65-4.44,1.53-7.28.87-11.16-.3,1.15-.36,2.31-.42,3.48-.44,7.99-3.81,13.23-10.1,17.05-4.73,2.88-11.17,3.59-16.57,1.82-6.53-2.15-11.98-6.01-16.58-11.18Z"/>
        <path class="cls-2" d="M125.08,27.69c-2.76-1.29-6.63-1.34-9.37-.45-4.08,1.32-6.56,5.1-6.38,9.51.15,3.73,2.53,6.34,6.14,6.45,2.86.09,5.34-1.02,7.1-3.44.42-.58,1.26-2.06,1.44-3.33-.78,1.31-2.9,4.33-7.35,4.82-2.3.44-4.3-.85-5.18-2.85-2.19-5.02,2.17-10.74,6.67-10.03-4.39,2.23-4.51,5.86-2.5,8.92-1.37-3.62,1.72-7.51,5.48-7.99,5.26-.52,6.72,1.43,8.07,2.4-.7-1.82-2-3.02-4.12-4.01Z"/>
        <path class="cls-2" d="M101.68,57.75c-.04-.44-3.26-2.29-6.68-9.77-.82-1.58-3.56-2.46-5.91-2.43,4.3,3.87,7.08,9.93,12.59,12.2Z"/>
        <path class="cls-2" d="M.79,47.81c3.19,11.96,11.25,18.65,22.82,21.06,7.84,1.64,15.19-.29,22.21-3.91.85-.44,1.69-.89,2.94-1.02-.47.77-.93,1.56-1.42,2.32-1.59,2.49-3.37,4.88-4.76,7.48-2.07,3.89-2.01,7.94.57,11.53,1.51,2.1,2.81,4.23,3.97,6.55,1.07,2.13,2.84,3.9,4.4,5.73.87,1.02,1.2,2.07,1.22,3.42.07,4.62,2.11,8.1,6,10.46.71.43,1.35,1.15,1.75,1.89,1.91,3.56,4.21,6.51,6.06,10.1.96,2.11,2.52,4.76,3.1,8.13.17-.24,2.14-6.02,3.1-8.13,1.85-3.6,4.15-6.54,6.06-10.1.4-.74,1.05-1.46,1.75-1.89,3.89-2.36,5.93-5.84,6-10.46.02-1.36.35-2.4,1.22-3.42,1.56-1.84,3.33-3.61,4.4-5.73,1.17-2.32,2.46-4.45,3.97-6.55,2.59-3.59,2.65-7.64.57-11.53-1.39-2.61-3.17-4.99-4.76-7.48-.49-.76-.95-1.55-1.42-2.32,1.25.13,2.09.58,2.94,1.02,7.02,3.62,14.36,5.55,22.21,3.91,11.57-2.41,19.63-9.11,22.82-21.06,3.02-11.31-2.87-22.25-13.48-25.6-9.61-3.04-17.72,1.55-20.39,11.54-.18.68-.44,1.33-.67,2-5.38.71-9.12-1.8-12.59-5.95,7.11-1.12,12.64-4.32,16.45-10.27,3.68-5.74,4.84-15.91,2.01-19.53-.52.92-1.07,1.68-1.39,2.52-1.27,3.35-3.74,4.94-7.1,5.13-1.84.11-3.69-.05-5.54-.04-3.69,0-7.4-.27-11.05.1-8.31.85-13.97,6.44-15.03,14.9-.03.28-.05.56-.08.84-.03-.28-.04-.56-.08-.84-1.06-8.46-6.72-14.06-15.03-14.9-3.65-.37-7.37-.1-11.05-.1-1.85,0-3.7.15-5.54.04-3.36-.2-5.83-1.78-7.1-5.13-.32-.85-.87-1.6-1.39-2.52-2.84,3.62-1.67,13.8,2.01,19.53,3.81,5.95,9.34,9.15,16.45,10.27-3.46,4.15-7.2,6.66-12.59,5.95-.23-.67-.48-1.33-.67-2-2.68-9.99-10.78-14.58-20.39-11.54C3.66,25.56-2.23,36.5.79,47.81ZM92.02,70.28c1.26,2.05,2.47,4.19,3.27,6.46,1.07,3,.18,5.77-1.89,8.46-1.15-2.25-1.36-4.63-2.81-6.43-.05,2.11-.06,4.2.33,6.2.97,4.98-2.22,7.72-4.99,10.83-2.14-3.76-4.54-7.19-6.13-10.97-1.55-3.69-2.29-7.74-3.38-11.63.3,6.21,1,12.27,4.14,17.76,1.1,1.93,1.94,4.08,2.52,6.24.45,1.7.57,3.59.39,5.34-.21,2-1.03,3.86-3.1,5.34.06-4.07-.83-7.41-3.1-10.28.11,2.19.42,4.32.79,6.45.46,2.69.11,5.23-1.27,7.58-.64,1.08-1.37,2.11-1.94,3.23-1.25,2.48-3.46,5.2-4.53,7.76-.22.52-.49,1.59-.67,2.81-.18-1.21-.45-2.29-.67-2.81-1.07-2.56-3.28-5.28-4.53-7.76-.56-1.12-1.3-2.15-1.94-3.23-1.38-2.35-1.73-4.89-1.27-7.58.37-2.12.68-4.26.79-6.45-2.27,2.88-3.17,6.21-3.1,10.28-2.07-1.48-2.9-3.34-3.1-5.34-.18-1.76-.07-3.65.39-5.34.58-2.16,1.42-4.31,2.52-6.24,3.14-5.49,3.84-11.56,4.14-17.76-1.09,3.89-1.83,7.94-3.38,11.63-1.59,3.78-3.99,7.21-6.13,10.97-2.77-3.11-5.96-5.85-4.99-10.83.39-2,.38-4.09.33-6.2-1.45,1.81-1.66,4.19-2.81,6.43-2.07-2.69-2.96-5.46-1.89-8.46.8-2.26,2.01-4.41,3.27-6.46,1.74-2.82,3.83-5.4,4.85-8.67.24-.78,1.04-1.4,1.65-2.03,1.27-1.32,2.59-2.6,3.89-3.88-.29.89-.47,1.84-.89,2.66-1.72,3.36-3.58,6.63-5.24,10.02-.69,1.41-1,3.01-1.23,4.63,1.48-1.11,1.64-2.94,2.44-4.4.91-1.65,1.66-3.4,2.6-5.03.9-1.55,1.93-3.02,2.95-4.49,1.01-1.44,2.07-2.84,3.34-4.14-1.91,11.52-6.21,22.24-10.14,33.07.2.08,6.84-15.74,9.96-23.72-.8,7.16-2.38,14.11-5.09,20.78,4.31-6.9,5.4-14.85,7.26-22.61.1,1.19.2,2.38.29,3.57,1.74-5.37,1.03-11.09,2.96-16.47.03,2.15.11,4.3.06,6.44-.05,2.26-.18,4.51-.35,6.76-.17,2.25-.36,4.51-.66,6.75-.29,2.15-.69,4.28-1.13,6.4-.46,2.21-.98,4.41-1.56,6.59-.58,2.18-1.22,4.34-1.92,6.48-.69,2.11-2.55,8.26-2.73,9.41,1.14-2.48,3.29-7.87,4.46-10.33.41-.86.94-1.65,1.41-2.47,0-.09-.01-.16.06-.03-.28,2.03-.45,6.18-.26,6.23.74-2.9,1.49-5.79,2.23-8.69.67,3.97.03,7.8-.44,11.64-.47,3.85-1,7.7-.52,12.09.49-3.93,1.42-10.15,1.99-13.44.04,3.69.74,8.24.93,11.9.06,1.24.63,9.73,1.19,9.73.57,0,1.13-8.49,1.19-9.73.18-3.66.88-8.21.93-11.9.57,3.29,1.5,9.51,1.99,13.44.49-4.39-.04-8.24-.52-12.09-.47-3.84-1.11-7.67-.44-11.64.74,2.9,1.49,5.79,2.23,8.69.19-.04.02-4.19-.26-6.23.07-.12.06-.05.06.03.47.83,1,1.62,1.41,2.47,1.17,2.47,3.33,7.85,4.46,10.33-.18-1.15-2.04-7.3-2.73-9.41-.7-2.14-1.34-4.3-1.92-6.48-.58-2.18-1.1-4.38-1.56-6.59-.44-2.12-.84-4.25-1.13-6.4-.3-2.24-.49-4.49-.66-6.75-.17-2.25-.3-4.51-.35-6.76-.05-2.15.04-4.3.06-6.44,1.92,5.38,1.22,11.09,2.96,16.47.1-1.19.2-2.38.29-3.57,1.86,7.76,2.94,15.72,7.26,22.61-2.71-6.67-4.29-13.62-5.09-20.78,3.12,7.98,9.76,23.8,9.96,23.72-3.94-10.83-8.23-21.55-10.14-33.07,1.27,1.3,2.34,2.7,3.34,4.14,1.02,1.47,2.06,2.94,2.95,4.49.94,1.63,1.7,3.37,2.6,5.03.8,1.46.96,3.29,2.44,4.4-.23-1.62-.54-3.22-1.23-4.63-1.66-3.39-3.52-6.66-5.24-10.02-.42-.82-.6-1.77-.89-2.66,1.3,1.29,2.61,2.57,3.89,3.88.61.63,1.41,1.25,1.65,2.03,1.02,3.26,3.11,5.85,4.85,8.67ZM57.68,55.69s.04-.03.05-.05c.04.02.08.03.11.04-.06,0-.11,0-.17,0ZM61.83,62.45l.15-.03-.05.19-.1-.16ZM77.33,62.42l.15.03-.1.16-.05-.19ZM81.46,55.68s.08-.03.11-.04c.02.02.04.03.05.05-.06,0-.11,0-.17,0ZM104.02,39.31c.15.59.36,1.44.58,2.3.83,3.21,2.11,6.3,6.33,7.81-4.53-.46-7.58-3.69-10.06-6.74.1.53.61,1.49.83,1.95,2.26,4.74,6.13,6.94,11.12,7.3.78.06,1.56,0,2.35-.02-.55,1-2.35,1.95-3.54,2.22-3.41.66-7.14-.99-9.52-4.69-.92-1.43-1.68-2.96-2.63-4.36-.94-1.38-2.02-2.65-2.94-3.85,2.44-.63,4.91-1.27,7.49-1.94ZM97.24,46.53c.69,1.16,1.37,2.32,2.07,3.47,3.18,5.14,7.34,7.03,13.06,5.7,3.9-.77,7.5-3.35,11.17-7.24.83-.88,1.55-2.01,2.82-3.56-1.89,5.72-7.8,11.38-13.91,13.27-1.17.36-4.89.97-7.45.89,2.13.93,5.53.71,6.4.58,9.86-1.45,17.89-11.43,17.45-21.68-.05-1.15-.35-2.29-1.05-3.44-.15,1.12-.3,2.24-.45,3.35-.98,7.22-7.7,11.86-14.46,10.09-4-1.05-6.13-3.77-6.73-7.77-.66-4.42.44-8.47,3.23-11.92,3.85-4.75,8.9-5.54,14.38-4.11,10.49,2.75,16.19,13.56,12.76,24.44-3.3,10.48-10.8,16.14-21.04,18.27-5.4,1.12-10.73.52-15.8-1.59-12.82-5.34-21.93-14.44-26.31-28.16-.22-.68-.35-1.39-.49-2.09-.03-.14.12-.32.25-.63,2.61,1.23,5.37,1.3,8.18.98.77-.09,1.57.08,2.35.21,1.45.25,2.36,1.09,2.59,2.65.14.98.29,1.98.56,2.93.57,1.98,1.72,2.9,3.54,2.21,3.46-1.32,5.3.47,6.89,3.16ZM89.34,37.68c1.56.87,2.64,1.48,4.22,2.36-1.53.37-2.49.6-3.69.89-.17-1.03-.3-1.85-.53-3.25ZM93.49,35.19c.32.36.5.84.72,1.3-2.95-2.08-5.87-4.19-8.8-6.3,1.89-.68,3.3-.59,4.47,1.09,1.01,1.45,2.43,2.59,3.61,3.92ZM109.31,9.97c-.06.51-.07,1.03-.2,1.52-2.21,8.9-9.69,15.01-18.64,15.23-.97.02-1.94.03-2.9-.05-4.02-.34-8.05-.76-12.59.81.66-.95.88-1.38,1.2-1.72,4.84-5.27,10.93-7.39,17.84-7.32,2.58.03,5.03-.36,6.96-1.42-4.71.26-9.76.53-14.8.81-.03-.09-.06-.19-.09-.28.5-.18.98-.42,1.49-.54.6-.14,1.21-.21,1.82-.27,2.01-.2,4.03-.37,6.04-.57,3.28-.32,6.39-1.19,9.27-3.12-.24,2.42-2.08,5.01-5.05,6.82-2.47,1.5-5.08,2.75-7.55,4.29,4.04-.33,7.67-1.77,10.82-4.35,3.13-2.56,4.54-6.32,6.37-9.87ZM76.81,20.98c.01-.06.02-.11.03-.17.01.04.02.07.03.11-.02.02-.04.04-.06.06ZM72.16,20.6c.65-3.18,2.39-5.57,5.01-7.33,2.95-2,6.26-2.84,9.72-3.01,2.98-.14,5.97-.11,8.96-.04,3.8.09,7.56.04,11.12-2.26.26,1.92-.69,2.93-1.78,3.81-2.94,2.37-6.36,3.37-10.03,3.6-2.37.15-4.75.17-7.1.43-4.24.47-8.17,1.76-11.18,5.12-.47-1.24.49-1.81,1.17-2.45,2.49-2.34,5.53-3.43,8.81-3.91,3.82-.56,7.65-1.09,11.47-1.65.49-.07.98-.23,1.44-.8-.8,0-1.61-.05-2.41,0-3.85.28-7.72.44-11.54.92-5.52.7-9.97,3.32-12.9,8.34-.14.23-.26.47-.76.53,0-.44-.07-.9.01-1.32ZM32.33,7.96c3.56,2.3,7.32,2.35,11.12,2.26,2.98-.07,5.98-.1,8.96.04,3.46.16,6.77,1.01,9.72,3.01,2.62,1.77,4.36,4.16,5.01,7.33.09.42.01.88.01,1.32-.49-.06-.62-.3-.76-.53-2.93-5.02-7.39-7.64-12.9-8.34-3.83-.48-7.69-.64-11.54-.92-.8-.06-1.61,0-2.41,0,.47.57.95.73,1.44.8,3.82.56,7.65,1.09,11.47,1.65,3.28.48,6.32,1.58,8.81,3.91.68.63,1.64,1.21,1.17,2.45-3.01-3.35-6.94-4.64-11.18-5.12-2.35-.26-4.73-.28-7.1-.43-3.67-.23-7.09-1.24-10.03-3.6-1.09-.88-2.04-1.89-1.78-3.81ZM62.49,20.98s-.04-.04-.06-.06c.01-.04.02-.07.03-.11.01.06.02.11.03.17ZM30.2,11.49c-.12-.49-.13-1.02-.2-1.52,1.83,3.55,3.24,7.31,6.37,9.87,3.15,2.57,6.78,4.02,10.82,4.35-2.47-1.53-5.08-2.79-7.55-4.29-2.98-1.81-4.81-4.4-5.05-6.82,2.88,1.93,5.99,2.8,9.27,3.12,2.01.19,4.03.37,6.04.57.61.06,1.23.12,1.82.27.51.12,1,.36,1.49.54-.03.09-.06.19-.09.28-5.04-.27-10.09-.55-14.8-.81,1.93,1.06,4.38,1.44,6.96,1.42,6.91-.07,12.99,2.05,17.84,7.32.31.34.54.76,1.2,1.72-4.54-1.58-8.56-1.15-12.59-.81-.96.08-1.94.07-2.9.05-8.95-.21-16.43-6.32-18.64-15.23ZM45.82,35.19c1.18-1.33,2.6-2.47,3.61-3.92,1.17-1.68,2.59-1.77,4.47-1.09-2.92,2.11-5.85,4.22-8.8,6.3.22-.45.4-.94.72-1.3ZM49.97,37.68c-.23,1.4-.36,2.21-.53,3.25-1.2-.29-2.17-.52-3.69-.89,1.58-.89,2.66-1.49,4.22-2.36ZM34.71,41.61c.22-.86.44-1.72.58-2.3,2.58.67,5.05,1.3,7.49,1.94-.92,1.2-2.01,2.47-2.94,3.85-.95,1.4-1.71,2.94-2.63,4.36-2.38,3.7-6.12,5.34-9.52,4.69-1.19-.27-2.99-1.23-3.54-2.22.78,0,1.57.07,2.35.02,4.99-.36,8.86-2.56,11.12-7.3.22-.46.74-1.42.83-1.95-2.49,3.04-5.54,6.27-10.06,6.74,4.22-1.51,5.5-4.61,6.33-7.81ZM15.55,24.17c5.47-1.43,10.53-.65,14.38,4.11,2.79,3.45,3.89,7.5,3.23,11.92-.6,4-2.74,6.73-6.73,7.77-6.76,1.77-13.48-2.87-14.46-10.09-.15-1.12-.3-2.24-.45-3.35-.7,1.16-1,2.29-1.05,3.44-.44,10.25,7.59,20.23,17.45,21.68.87.13,4.27.35,6.4-.58-2.55.08-6.27-.53-7.45-.89-6.11-1.89-12.02-7.55-13.91-13.27,1.27,1.54,1.98,2.67,2.82,3.56,3.67,3.89,7.28,6.46,11.17,7.24,5.72,1.33,9.88-.56,13.06-5.7.71-1.14,1.39-2.31,2.07-3.47,1.59-2.68,3.43-4.47,6.89-3.16,1.82.69,2.97-.23,3.54-2.21.27-.95.42-1.94.56-2.93.23-1.56,1.14-2.4,2.59-2.65.78-.13,1.58-.3,2.35-.21,2.81.32,5.57.25,8.18-.98.13.31.27.49.25.63-.14.7-.27,1.41-.49,2.09-4.39,13.72-13.5,22.82-26.31,28.16-5.07,2.11-10.4,2.71-15.8,1.59-10.24-2.12-17.74-7.79-21.04-18.27-3.43-10.88,2.27-21.69,12.76-24.44Z"/>
        <path class="cls-2" d="M27.34,64.41c6.15.58,10.62-1.08,15.66-3.48,6.95-3.3,12.55-8.29,16.97-14.67.7-1.01,1.61-3.39,2.17-4.5,0,0-1.88,2.64-2.58,3.39-3.01,3.23-5.48,7.03-10.08,9.73,1.62-1.31,7.81-8.58,10.49-13.6.5-.93,1.11-2.31,1.55-3.32-.27-.05-6.31,7.11-10.37,10.14-.65.48-4.66,3.72-4.92,4.72,1.26-.48,5.59-2.59,5.32-2.28-4.6,5.17-10.05,9.03-16.58,11.18-5.4,1.77-11.84,1.06-16.57-1.82-6.29-3.82-9.65-9.06-10.1-17.05-.06-1.17-.12-2.34-.42-3.48-.66,3.88-.79,6.72.87,11.16-2.12-2.96-4.75-8-2.35-15.82-1.2,1.12-1.74,3.9-1.92,5.46-.2,1.7.13,6.17,1.28,8.88,4.01,9.25,11,14.35,21.58,15.35Z"/>
        <path class="cls-2" d="M18.18,29.3c3.77.48,6.85,4.37,5.48,7.99,2.02-3.07,1.89-6.7-2.5-8.92,4.5-.71,8.86,5.01,6.67,10.03-.88,2.01-2.88,3.29-5.18,2.85-4.44-.49-6.56-3.51-7.35-4.82.17,1.28,1.01,2.75,1.43,3.33,1.76,2.42,4.24,3.53,7.1,3.44,3.61-.11,5.99-2.72,6.14-6.45.18-4.41-2.3-8.19-6.38-9.51-2.74-.89-6.61-.83-9.37.45-2.12.99-3.43,2.19-4.12,4.01,1.35-.97,2.82-2.92,8.07-2.4Z"/>
        <path class="cls-2" d="M50.21,45.55c-2.35-.03-5.09.84-5.91,2.43-3.42,7.48-6.64,9.33-6.68,9.77,5.5-2.27,8.29-8.33,12.59-12.2Z"/>
      </g>
    </g>
  </g>
</svg>