<?xml version="1.0" encoding="UTF-8"?>
<svg id="Layer_2" data-name="Layer 2" xmlns="http://www.w3.org/2000/svg" viewBox="0 0 86.48 78.47">
  <defs>
    <style>
      .cls-1 {
        fill: #fff;
      }

      .cls-2 {
        fill: #251500;
      }
    </style>
  </defs>
  <g id="OBJECTS">
    <g>
      <path class="cls-1" d="M22.85,60.86c-4.03-.09-6.84-1.33-9.04-4.03-.47-.58-1.43-.81-2.21-1.05-1.17-.35-2.46-.37-3.53-.89-1.23-.6-2.43-1.45-3.37-2.46-.86-.91-.54-1.77.61-2.19.86-.32,1.8-.43,2.71-.62,10.33-2.11,18.08-7.77,23.11-17.08,1.28-2.37,2.34-4.87,3.46-7.34,2.93-6.42,6.69-12.25,11.59-17.28,2.81-2.88,5.91-5.38,9.72-6.76,10.55-3.82,24.07,2.12,28.62,12.69,2.66,6.19,2.83,12.39-1.05,18.07-3.84,5.63-10.21,7.45-16.18,5.2-10.2-3.85-11.07-15.41-8.01-20.71.28-.48,1.33-2.01,2.96-3.25-1.19.4-3.24,1.51-4.66,2.96-3.24,3.3-4.15,7.66-4.01,12.23.1,3.2.61,6.4.76,9.61.15,3.01.16,6.03.05,9.03-.07,1.72-.67,3.45-2.16,4.38-1.55.96-1.92,2.3-2.14,3.95-.4,3.04-1.34,5.82-3.92,7.78-.53.4-.76,1.42-.82,2.18-.2,2.32-.95,4.4-2.25,6.26-3.54,5.07-9.15,6.77-15.33,4.52-1.59-.58-2.63-.52-3.99.59-1.21.98-2.93,1.58-4.5,1.78-2.17.27-4.23-.69-6.09-1.89-1.26-.82-2.52-1.12-3.99-.92-2.46.32-4.85-.11-7.07-1.35-.59-.33-1.05-.89-2.15-1.84,9.05-1.53,16.55-4.72,22.85-11.56Z"/>
      <path class="cls-2" d="M0,72.42c1.1.95,1.56,1.51,2.15,1.84,2.22,1.23,4.61,1.67,7.07,1.35,1.47-.19,2.73.1,3.99.92,1.85,1.21,3.92,2.17,6.09,1.89,1.58-.2,3.3-.8,4.5-1.78,1.36-1.1,2.41-1.17,3.99-.59,6.18,2.26,11.79.55,15.33-4.52,1.3-1.86,2.06-3.94,2.25-6.26.06-.77.29-1.78.82-2.18,2.58-1.96,3.51-4.73,3.92-7.78.22-1.65.59-2.99,2.14-3.95,1.49-.92,2.09-2.65,2.16-4.38.12-3,.1-6.02-.05-9.03-.15-3.2-.67-6.4-.76-9.61-.14-4.57.78-8.92,4.01-12.23,1.42-1.45,3.47-2.56,4.66-2.96-1.63,1.25-2.68,2.77-2.96,3.25-3.06,5.3-2.19,16.86,8.01,20.71,5.97,2.25,12.34.43,16.18-5.2,3.88-5.68,3.71-11.88,1.05-18.07C79.99,3.28,66.46-2.66,55.92,1.16c-3.81,1.38-6.92,3.89-9.72,6.76-4.9,5.03-8.66,10.86-11.59,17.28-1.12,2.46-2.18,4.96-3.46,7.34-5.03,9.31-12.78,14.97-23.11,17.08-.91.19-1.85.3-2.71.62-1.15.42-1.47,1.28-.61,2.19.94,1,2.14,1.86,3.37,2.46,1.07.52,2.37.54,3.53.89.78.24,1.74.47,2.21,1.05,2.2,2.7,5,3.94,9.04,4.03-6.3,6.84-13.8,10.03-22.85,11.56ZM15.03,54.64c7.1-2.7,12.16-7.96,17.65-12.68-3.69,4.98-8.07,9.65-11.62,11.7.92.07,2.01-.53,2.85-.87.75-.3,2.21-1.54,3.17-1.79-.54,1.42-1.94,2.64-4.06,4.31.12.11.74-.04,1.29-.29,1.2-.68,2.4-1.36,3.94-2.24-1.32,3.63-3.18,5.86-6.78,5.89-2.86.02-4.95-1.31-6.45-4.03ZM36.28,40.97c-.22.46-1.48,2.7-1.71,3.16.15-.48,1.47-5.1,1.71-5.73.59-1.89,2.4-4.82,4.14-6.01-.82,1.71-2.39,5.05-3.21,6.76-.31.61-.62,1.21-.93,1.82ZM69.69,4.03c-1.48-.37-2.82-.73-4.35-.73-9.83.02-16.94,5.57-21.55,14.17-.97,1.81-1.96,3.6-2.82,5.46-1.17,2.53-2.36,4.44-4.2,6.75-.82,1.02-2.16,3.54-2.35,3.81,1.75-2.03,4.13-4.1,5.35-4.87-1.82,2.75-3.97,5.08-5.62,7.74-3.63,5.88-8.26,10.62-14.06,14.33-2.6,1.66-5.32,2.57-8.29,2.88-1.99.21-3.97-.2-5.71-2.11.94-.25,1.54-.46,2.15-.57,11.58-2.05,19.91-8.47,25.22-18.94,1.18-2.33,2.28-4.7,3.47-7.02,3.66-7.11,8.37-13.37,14.43-18.56,4.03-3.45,12.98-6.05,18.33-2.37ZM48.32,20.41c-.75,1.49-1.63,2.82-3.78,3.26.28-.8.37-1.35.64-1.78,1.37-2.2,2.7-4.44,4.22-6.54,3.09-4.28,7.23-7.06,12.39-8.31,1.29-.31,4-1.15,5.88-1.3-.46-.11-2.98-.05-3.43-.02-5.84.43-10.66,2.9-14.43,7.33-2.59,3.04-4.85,6.31-6.14,10.19-.31.94-.61,1.95-2.35,1.69,2.04-3.54,3.91-6.93,5.93-10.22,2.18-3.55,5.22-6.19,8.88-8.16,6.46-3.47,12.94-2.86,18.75,1.82.28.22,2.21,1.58,3.44,3.21-1.12-2.81-4.46-5.71-6.56-6.97,3.36.95,6.51,3.82,8.37,6.56,3.31,4.86,2.14,11.72-2.42,15.15-2.29,1.73-4.79,2.61-7.78,2.12,1.19,1.38,2.66,1.35,4.07,1.09,3.86-.72,6.39-3.12,7.96-6.66.31-.69.63-1.38,1.17-2.57.41,7.78-7.42,12.87-14.34,9.84-.75-.33-1.48-.89-2.01-1.53-1.13-1.35-1.32-2.96-.68-4.53.63-1.52,2-1.78,3.5-1.62.31.03.63.06,1.12.1-.2-.52-.23-.85-.41-1.01-2.15-1.98-5.2-1.26-6.39,1.48-1.47,3.39.34,7.58,4.02,9.14,2.83,1.2,5.74,1.21,8.44-.03,2.04-.94,3.85-2.38,6.25-3.91-1.44,3.64-3.69,5.68-6.6,7-4.57,2.08-10.46.22-13.14-4.05-2.45-3.91-1.47-9.49,2.27-12.78,1.84-1.63,3.94-2.34,6.44-1.7.71.18,1.45.23,2.17.33-3.06-2.58-6.11-2.38-9.11-.47-.81.51-2.45,1.94-3.17,3.08.15-1.21,1.01-2.84,1.33-3.21,1.93-2.24,4.21-3.65,7.38-3.49,2.89.15,5.33,1.16,6.52,4.6.7-2.01.28-3.44-.53-4.76-2.36-3.86-5.9-5.53-10.21-5.4-4.23.13-7.89,1.83-11.12,4.48-2.84,2.33-4.89,5.27-6.54,8.54ZM45.55,61.58c-.45-7.13-1.19-13.81-.42-20.44.42-3.61,1.32-7.14,2.01-10.71.09-.25.51-1.77.48-1.5-.08.83-.3,3.25-.42,4.07-.8,5.53-.25,11.75.75,17.26.22-1.14.26-2.97.31-4.13.13-3.18.64-11.58.9-12.59.31,3.01,1.44,10.35,1.54,9.43.35-3.2.74-14.16.86-14.35,0,.22,1.36,10.17,1.67,14.39.1,1.3-.09,2.63-.27,3.92-.21,1.53-.78,2.87-2.28,3.6-1.4.68-1.7,2-2,3.44-.43,2.09-1.07,4.13-1.73,6.15-.16.48-.75.79-1.4,1.45ZM4.32,73.16c.89-.38,1.35-.61,1.83-.78,2.52-.9,5.13-1.59,7.55-2.71,7.98-3.67,14.25-9.17,17.71-17.55.32-.77.75-1.48,1.13-2.22.31-.71.62-1.42.94-2.13-.21.74-.41,1.48-.62,2.22-1.42,3.64-2.63,7.38-4.31,10.88-2.3,4.81-6.4,7.95-10.88,10.65.39.14.65.14.86.05,5.61-2.6,9.64-6.84,12.12-12.5,2.13-4.87,4-9.86,6-14.79.4-.99.9-1.93,1.35-2.89-.74,10.01-2.64,19.57-8.42,27.78.81-.56,1.2-1.02,1.65-1.64,4.59-6.4,7.21-14.95,8.25-22.74.6,2.88-.55,16.4-4.02,22.78-.32.58-.46,1.01-1.28,2.11,2.99-2.7,5.17-7.17,5.83-11.03,1.14-6.64,2.85-18.98,2.86-18.08.09,5.93.43,13.27.45,19.2,0,1.78.02,3.58-.18,5.34-.92,7.95-7.71,11.85-15.07,8.71-3.04-1.3-3.09-1.34-5.19,1.1-1.38,1.6-3.08,2.07-5.01,1.49-1.32-.4-2.64-1.04-3.77-1.85-1.5-1.06-2.95-1.49-4.73-1.05-1.49.36-3.06.5-5.06-.33Z"/>
    </g>
  </g>
</svg>