<?xml version="1.0" encoding="UTF-8"?>
<svg id="Layer_2" data-name="Layer 2" xmlns="http://www.w3.org/2000/svg" viewBox="0 0 222.34 68.79">
  <defs>
    <style>
      .cls-1 {
        fill: #fff;
      }

      .cls-2 {
        fill: #251500;
      }
    </style>
  </defs>
  <g id="OBJECTS">
    <g>
      <path class="cls-1" d="M217.6,25.99c-4.79-5.11-10.65-7.08-17.47-5.84-8.38,1.52-14.09,8.76-13.41,16.94.44,5.27,4.18,9.81,9.13,10.3,2.11.21,4.89-.22,6.77-.96-1.27,4.58-4.26,7.49-8.51,9.06-6.98,2.57-14.11,3.42-21.46,1.98-16.96-3.32-32.45-9.8-45.26-22.08-4.4-4.22-8.65-8.62-13-12.9-4.17-4.1-8.26-8.3-12.62-12.17-5-4.43-10.75-7.62-17.25-9.08-1.53-.35-3.42-.58-4.75.03-2.34,1.09-4.35.61-6.52-.15-5.84-2.06-11.45-1.22-16.62,2-2.76,1.72-5.31,3.89-7.71,6.13-2.5,2.34-4.67,5.05-7.07,7.51-1.05,1.08-2.21,2.12-3.49,2.86-5.19,2.99-10.61,5.08-16.7,5.38-6.32.31-12.47,1.63-17.67,5.74-1.18.93-2.39,1.94-3.28,3.15-1.46,1.99-.61,3.76,1.81,4.07.62.08,1.25.05,1.88,0,4.7-.42,8.62,1.17,11.76,4.79.5.58,1.08,1.08,1.62,1.61,3.41,3.3,7.39,4.22,11.84,2.86,2.14-.66,4.22-1.53,6.26-2.28,4.54,4.14,6.58,5.06,12.71,4.52,4.35-.38,8.65-1.41,12.98-2.13,1.25-.21,2.51-.75,4.13-.28-3.59,3.8-7.82,5.79-12.45,7.62,1.32,1.12,2.27,1.92,3.22,2.73,8,6.83,17.18,9.59,27.38,7.54,6.38-1.28,12.62-3.3,18.9-5.07,11.12-3.13,22.4-5.01,33.83-2.71,6.86,1.38,13.56,3.67,20.25,5.82,6.71,2.16,13.35,4.47,20.37,5.35,11.2,1.4,21.77-.45,31.47-6.51,6.47-4.05,10.99-9.82,12.86-17.44,1.65-6.72,1.03-13.13-3.92-18.4Z"/>
      <g>
        <path class="cls-2" d="M217.6,25.99c-4.79-5.11-10.65-7.08-17.47-5.84-8.38,1.52-14.09,8.76-13.41,16.94.44,5.27,4.18,9.81,9.13,10.3,2.11.21,4.89-.22,6.77-.96-1.27,4.58-4.26,7.49-8.51,9.06-6.98,2.57-14.11,3.42-21.46,1.98-16.96-3.32-32.45-9.8-45.26-22.08-4.4-4.22-8.65-8.62-13-12.9-4.17-4.1-8.26-8.3-12.62-12.17-5-4.43-10.75-7.62-17.25-9.08-1.53-.35-3.42-.58-4.75.03-2.34,1.09-4.35.61-6.52-.15-5.84-2.06-11.45-1.22-16.62,2-2.76,1.72-5.31,3.89-7.71,6.13-2.5,2.34-4.67,5.05-7.07,7.51-1.05,1.08-2.21,2.12-3.49,2.86-5.19,2.99-10.61,5.08-16.7,5.38-6.32.31-12.47,1.63-17.67,5.74-1.18.93-2.39,1.94-3.28,3.15-1.46,1.99-.61,3.76,1.81,4.07.62.08,1.25.05,1.88,0,4.7-.42,8.62,1.16,11.76,4.79.5.58,1.08,1.08,1.62,1.61,3.41,3.3,7.39,4.22,11.84,2.86,2.14-.66,4.22-1.53,6.26-2.28,4.54,4.14,6.58,5.06,12.71,4.52,4.35-.38,8.65-1.41,12.98-2.13,1.25-.21,2.51-.75,4.13-.28-3.59,3.8-7.83,5.79-12.45,7.62,1.32,1.12,2.27,1.92,3.22,2.73,8,6.83,17.18,9.59,27.38,7.54,6.38-1.28,12.62-3.3,18.9-5.07,11.12-3.13,22.4-5.01,33.83-2.71,6.86,1.38,13.56,3.67,20.25,5.82,6.71,2.16,13.35,4.47,20.37,5.35,11.2,1.4,21.77-.45,31.47-6.51,6.47-4.05,10.99-9.82,12.86-17.44,1.65-6.72,1.03-13.13-3.92-18.4ZM64.9,3.5c2.53-.26,5.21.24,7.73.83,2.73.64,5.25,1.3,7.98-.24,1.04-.59,2.7-.35,3.99-.07,6.14,1.36,11.36,4.63,16.06,8.8,2.63,2.33,8.19,8.72,9.57,10.04-1.91-1.28-3.23-2.54-4.24-3.21-5.04-3.36-10.03-6.79-15.08-10.14-.82-.55-1.82-.81-2.74-1.21l-.22.25c2.05,1.66,4.1,3.33,6.15,4.99-1.31-.38-2.7-.61-3.94-1.19-8.09-3.78-16.59-5.75-25.44-6.11-1.43-.06-2.87.1-4.31.87,3.03.37,6.08.68,9.1,1.12,9.32,1.36,28.82,11.52,29.58,12.09-.62-.24-5.47-1.81-6.56-2.28-7.53-3.23-15.3-5.57-23.45-6.3-7.19-.65-14.15.52-20.85,3.29.04-.36-.05-.86.15-1.08,4.5-5.16,9.47-9.72,16.52-10.45ZM48.19,14.82l.04.23s-.03.01-.04.02v-.24ZM138.13,54.01c-13.29-2.03-26.22-.21-39,3.69-5.51,1.68-11.11,3.13-16.74,4.37-5.85,1.3-11.47-.02-16.86-2.45-2.47-1.11-4.86-2.41-7.89-3.92,6.57-3.79,12.31-7.43,18.32-10.49,6.21-3.16,12.99-3.89,19.83-2.98,7.44.99,23.34,4.16,23.38,4.45-23.73-2.37-38.43,2.26-56.06,9.79,3.24-.76,6.52-1.39,9.72-2.31,8.22-2.36,16.45-4.7,25.01-5.18,4.68-.26,9.38-.05,14.13.33-11.44,3.14-22.87,6.28-34.58,9.5,5.65-.13,10.95-.91,16.23-2.27,7.4-1.9,14.84-3.75,22.34-5.15,6.34-1.19,12.76-.39,19.1.61,1.31.21,6.41,1.97,8.56,3.46-2.29-.7-5.26-1.41-5.5-1.45ZM218.65,44.46c-1.91,6.78-6.12,11.77-11.94,15.32-10.22,6.25-21.26,7.72-32.67,4.96-20.15-5.89-25.75-10.05-26.69-10.44-12.15-5.05-22.21-11.32-33.14-18.74-8.51-5.78-17.62-10.42-27.69-12.7-10.65-2.41-21.21-2.26-31.46,1.86-8.36,3.36-16.58,7.08-24.69,11.21,1.84-.55,3.72-.99,5.51-1.69,4.45-1.74,8.89-3.53,13.27-5.44,18.44-8.07,36.4-6.95,53.97,2.78.88.49,3.55,2.03,4.45,2.48-.08-.02-5.02-1.51-6.5-2.02-10.55-3.62-21.3-5.87-32.47-4.97-3.72.3-13.98,2.27-19.94,5.63,7.56-2.81,16.83-5.41,27.13-4.87,8.4.63,16.57,2.61,24.45,5.73,2.65,1,7.23,3.21,7.4,3.23-.15,0-3.84-.94-4.72-1.19-6.21-2.37-12.35-3.16-18.95-3.74-8.05-.71-16.04-.11-23.84,2.26-1.14.35-5.69,1.55-6.77,2.09,0,0,13.25-4.33,28.7-3.33,11.18.78,21.58,4.33,31.66,9.12.34.16,3.09,1.29,3.77,1.97-.79-.09-4.68-.98-5.46-1.13-5.91-1.15-11.81-2.31-17.71-3.48-6.23-1.24-12.26-.42-18.05,2.06-2.7,1.16-5.36,1.74-8.3,1.93-4.23.27-8.41,1.32-12.62,1.95-2.97.44-5.96.99-8.94,1.02-3.08.04-5.99-.7-7.27-4.29-.66-1.83-2.13-1.96-3.74-1.25-1.61.71-3.23,1.41-4.86,2.08-4.26,1.76-8.08,1.29-11.31-2.33-3.33-3.74-7.38-6.1-12.96-6.37,2.1-2.56,4.42-3.49,6.76-4.01,3.42-.75,6.92-1.26,10.4-1.5,4.47-.31,8.64-1.51,12.59-3.57,2.8-1.45,5.57-2.97,8.32-4.51,10.64-5.94,21.82-7.09,33.52-4.15,13.69,3.44,26.05,9.78,37.86,17.55,7.7,5.07,15.63,9.78,23.67,14.25,10.22,5.69,21.25,9.18,32.63,11.42,7.59,1.49,15.3,1.24,22.79-.51,8.35-1.95,14.74-6.93,18.4-15.15,1.18-2.65,1.63-5.43,1.26-8.3-.11-.89-.64-1.72-1.65-2.37,0,.98,0,1.97,0,2.95-.04,3.88-1.3,7.33-3.63,10.35-.32.41,1.25-3.58.48-7.36-1.76,3.51-3.17,6.31-4.57,9.1,0,0-.84-2.22.85-5.18.38-.66.85-1.28,1.18-1.97,1.29-2.7.85-5.94-1.04-7.91-1.92-2-4.34-2.17-8.31-.12,1.72.25,2.74.36,3.76.54,3.59.63,5.05,3.74,3.07,6.89-1.71,2.73-4.04,4.6-7.46,4.33-3.22-.25-5.34-2.11-6.61-5.01-1.74-3.99-1.18-7.84,1.13-11.4,3-4.61,9.73-7.14,14.97-5.74,10.13,2.7,14.93,11.3,12.01,21.67Z"/>
        <path class="cls-2" d="M210.11,53.27c-8.22,7.49-18.06,10.2-28.72,9.52-5.54-.35-13.21-2.22-18.71-3.19,0,0,6.24,2.54,16.31,4.23,7.6.96,15.01-.17,22.12-3.05,3.76-1.52,7.09-3.85,9.88-6.9.55-.6,2.04-3.27,2.43-4.03,0,0-2.66,2.83-3.3,3.42Z"/>
        <path class="cls-2" d="M58.35,39.67c7.52-1.2,14.4-2.29,20.21-3.22-6.04-.73-12.94.28-20.21,3.22Z"/>
        <path class="cls-2" d="M209.01,26.95c-3.46-3.16-8.78-2.87-12.47.49.23.04,1.55-.49,1.73-.55,4.88-1.6,7.37-.72,11.54,2.37.57.47,2.15,1.93,2.15,1.93-.8-1.77-2.11-3.48-2.95-4.24Z"/>
        <path class="cls-2" d="M192.83,35.14c.07,3.72,1.01,6.89,4.19,7.26,2.92.34,5.22-1.49,5.22-4.28-2.32,3.45-7.32,3.23-9.42-2.98Z"/>
        <path class="cls-2" d="M215.21,46.14c3.21-4.62,2.92-11.41-.41-15.08,2.94,9.8.41,15.08.41,15.08Z"/>
      </g>
    </g>
  </g>
</svg>